<?xml version="1.0" standalone="no"?>
<!DOCTYPE svg PUBLIC "-//W3C//DTD SVG 20010904//EN"
 "http://www.w3.org/TR/2001/REC-SVG-20010904/DTD/svg10.dtd">
<svg version="1.0" xmlns="http://www.w3.org/2000/svg"
 width="512.000000pt" height="512.000000pt" viewBox="0 0 512.000000 512.000000"
 preserveAspectRatio="xMidYMid meet">
<metadata>
Created by potrace 1.11, written by Peter Selinger 2001-2013
</metadata>
<g transform="translate(0.000000,512.000000) scale(0.100000,-0.100000)"
fill="#000000" stroke="none">
<path d="M2555 4594 c-11 -2 -45 -9 -75 -15 -297 -58 -570 -307 -704 -645
-167 -421 -105 -929 155 -1274 131 -173 277 -279 481 -350 317 -110 424 -234
487 -566 11 -54 22 -135 26 -179 42 -526 347 -941 770 -1051 105 -27 304 -25
409 5 365 103 645 438 733 879 27 135 24 396 -6 532 -57 261 -171 473 -340
633 -106 100 -167 138 -356 219 -314 137 -461 350 -515 748 -42 305 -111 496
-247 678 -144 193 -320 315 -542 372 -45 12 -238 21 -276 14z m227 -430 c215
-56 392 -251 463 -509 9 -33 19 -114 22 -180 9 -195 -31 -345 -133 -501 -172
-262 -456 -351 -719 -224 -180 87 -320 282 -369 517 -32 151 -10 367 50 506
86 197 245 345 420 391 64 17 202 17 266 0z m1258 -1788 c78 -24 135 -55 201
-110 121 -99 210 -250 250 -423 19 -81 21 -113 16 -226 -4 -111 -10 -147 -36
-224 -35 -106 -49 -136 -102 -214 -75 -111 -200 -209 -314 -246 -30 -10 -92
-17 -155 -19 -87 -2 -116 1 -170 20 -234 80 -396 288 -446 571 -60 339 97 699
364 834 112 57 279 73 392 37z"/>
<path d="M1492 3203 c-43 -86 -121 -219 -152 -257 -86 -106 -176 -162 -421
-260 -222 -90 -400 -302 -506 -606 -50 -143 -67 -247 -67 -420 -1 -254 31
-402 133 -615 153 -319 432 -521 747 -542 321 -21 629 142 822 437 103 156
157 312 187 540 26 205 56 285 142 388 31 37 63 74 72 82 60 56 61 53 -51 100
-221 91 -316 153 -510 333 -60 56 -182 270 -247 435 -66 165 -87 250 -99 393
l-7 80 -43 -88z m-52 -867 c335 -138 508 -545 404 -946 -94 -361 -415 -583
-727 -502 -217 56 -401 260 -468 517 -30 115 -30 318 0 430 71 264 244 458
464 520 84 24 246 15 327 -19z"/>
</g>
</svg>
